#!OML:ASF E:\emotionWalksFemale\Project 1\Capture day 1\Session 1\Female1.ASF
:FULLY-SPECIFIED
:DEGREES
506
root 7.64458 14.4676 24.3215 176.187 11.3397 175.618
lowerback 8.24914 1.1043 4.91121
upperback -2.61267 1.86234 -6.08058
thorax -7.07999 0.642957 -9.62538
lowerneck -1.0975 3.73214 -1.2157
upperneck 10.2415 5.57664 -0.725602
head 3.47921 2.86814 0.170125
rclavicle 1.66979e-014 -9.54166e-015
rhumerus -40.18 34.8996 -89.979
rradius 70.8883
rwrist 12.2926
rhand -6.48066 -53.6682
rfingers 7.12502
rthumb -160.63 97.2765
lclavicle 1.66979e-014 -9.54166e-015
lhumerus -38.6022 5.15617 62.7355
lradius 37.3985
lwrist -20.8972
lhand -9.86432 -33.3969
lfingers 7.12502
lthumb 16.1143 -4.0469
rfemur -37.2653 0.321522 18.2168
rtibia 86.8748
rfoot -17.1015 -13.7884
rtoes 1.60701
lfemur -9.38618 -2.94384 -33.9244
ltibia 43.705
lfoot -32.8825 8.46189
ltoes -8.4773
507
root 7.63308 14.4152 24.2675 175.935 11.7142 175.371
lowerback 7.37948 1.01327 4.93594
upperback -1.82127 1.73379 -6.19197
thorax -5.75274 0.668252 -9.65872
lowerneck -1.17867 3.91475 -1.00463
upperneck 9.7608 5.80066 -1.11266
head 3.34721 2.96045 0.0101434
rclavicle 2.97183e-014 -1.59028e-014
rhumerus -39.4294 34.649 -89.3159
rradius 71.1993
rwrist 12.412
rhand -6.48203 -53.7946
rfingers 7.12502
rthumb -160.631 97.15
lclavicle 2.97183e-014 -1.59028e-014
lhumerus -36.7832 5.98529 62.9444
lradius 36.5621
lwrist -21.3904
lhand -10.2415 -33.0357
lfingers 7.12502
lthumb 15.751 -3.65662
rfemur -38.4284 0.950959 18.3426
rtibia 85.912
rfoot -17.2245 -14.2747
rtoes -2.01567
lfemur -9.25903 -2.8691 -34.3766
ltibia 44.3948
lfoot -33.5369 9.10727
ltoes -9.50897
508
root 7.61976 14.3672 24.2112 175.666 12.1121 175.149
lowerback 8.41492 0.867174 4.82671
upperback -2.18928 1.54187 -6.18546
thorax -6.78284 0.514936 -9.63875
lowerneck -0.996622 4.09097 -0.793338
upperneck 10.3144 6.11686 -1.32491
head 3.52179 3.13435 -0.0784137
rclavicle -3.18552e-014 1.51076e-014
rhumerus -40.9124 34.3856 -89.8055
rradius 71.5279
rwrist 12.7088
rhand -6.08689 -54.3281
rfingers 7.12502
rthumb -160.251 96.6552
lclavicle -3.18552e-014 1.51076e-014
lhumerus -36.8942 5.54448 63.2053
lradius 36.18
lwrist -21.3692
lhand -10.9567 -33.0697
lfingers 7.12502
lthumb 15.0622 -3.63765
rfemur -39.4569 1.56026 18.5153
rtibia 84.7336
rfoot -17.1075 -15.0033
rtoes -6.37514
lfemur -9.05283 -2.70244 -34.7947
ltibia 44.9747
lfoot -34.1493 9.41818
ltoes -9.30078
509
root 7.60908 14.3233 24.155 175.397 12.5841 175.034
lowerback 7.81565 0.784718 4.92531
upperback -1.5727 1.4373 -6.21323
thorax -5.79638 0.525686 -9.65373
lowerneck -0.642794 4.27796 -0.616924
upperneck 9.59 6.33525 -1.71734
head 3.22609 3.22977 -0.249332
rclavicle -2.19657e-014 4.21423e-014
rhumerus -40.5966 34.1927 -89.3475
rradius 71.6414
rwrist 12.6952
rhand -5.23496 -55.6947
rfingers 7.12502
rthumb -159.432 95.3749
lclavicle -2.19657e-014 4.21423e-014
lhumerus -35.561 5.98054 63.4911
lradius 35.4563
lwrist -21.7956
lhand -12.1111 -33.4335
lfingers 7.12502
lthumb 13.95 -3.92152
rfemur -40.3266 2.29441 18.7996
rtibia 83.3264
rfoot -17.1177 -15.5986
rtoes -6.98974
lfemur -8.80389 -2.36842 -35.0532
ltibia 45.4639
lfoot -34.7196 9.46997
ltoes -8.37407
510
root 7.59817 14.2814 24.0969 175.146 13.0562 174.875
lowerback 8.10875 0.634069 4.78099
upperback -1.47437 1.22464 -6.10695
thorax -5.90497 0.421219 -9.43309
lowerneck -0.546099 4.47729 -0.533327
upperneck 9.52295 6.6367 -2.0915
head 3.20639 3.37286 -0.377654
rclavicle -3.926e-015 1.01778e-013
rhumerus -41.2332 34.1339 -89.2286
rradius 71.8077
rwrist 12.5022
rhand -5.06458 -56.478
rfingers 7.12502
rthumb -159.269 94.6093
lclavicle -3.926e-015 1.01778e-013
lhumerus -35.1252 6.47598 63.7586
lradius 35.1384
lwrist -22.1339
lhand -12.4964 -33.0186
lfingers 7.12502
lthumb 13.5786 -3.48144
rfemur -41.1074 3.04147 18.9979
rtibia 81.76
rfoot -17.4743 -15.9149
rtoes -5.64917
lfemur -8.53124 -1.94437 -35.3378
ltibia 45.8514
lfoot -35.2304 9.52226
ltoes -7.69547
511
root 7.58473 14.2424 24.0356 174.909 13.5394 174.766
lowerback 8.26078 0.539805 4.80513
upperback -1.21158 1.10781 -6.06876
thorax -5.73424 0.377768 -9.38598
lowerneck -0.896606 4.6355 -0.449855
upperneck 9.54711 6.85116 -2.23138
head 3.29226 3.46786 -0.419828
rclavicle -9.29318e-015 -3.97569e-015
rhumerus -41.5509 33.8298 -88.9543
rradius 71.8728
rwrist 11.8877
rhand -6.52938 -55.5957
rfingers 7.12502
rthumb -160.677 95.3444
lclavicle -9.29318e-015 -3.97569e-015
lhumerus -34.3522 7.0485 63.9937
lradius 34.8358
lwrist -22.5615
lhand -11.888 -32.755
lfingers 7.12502
lthumb 14.165 -3.25794
rfemur -41.743 3.76258 19.2075
rtibia 80.0282
rfoot -17.8214 -16.1122
rtoes -5.38212
lfemur -8.22995 -1.51508 -35.5811
ltibia 46.1632
lfoot -35.6237 9.74799
ltoes -7.86076
512
root 7.5714 14.2147 23.9685 174.738 14.1164 174.767
lowerback 8.30806 0.507122 5.01544
upperback -0.931412 1.09074 -6.05404
thorax -5.46327 0.383084 -9.48296
lowerneck -1.2744 4.75857 -0.305145
upperneck 9.56826 7.00113 -2.26941
head 3.3802 3.53412 -0.440556
rclavicle -1.06598e-014 1.82882e-014
rhumerus -41.846 33.4541 -88.7269
rradius 71.8372
rwrist 11.3565
rhand -7.76596 -54.65
rfingers 7.12502
rthumb -161.866 96.1753
lclavicle -1.06598e-014 1.82882e-014
lhumerus -33.4429 7.47985 64.2531
lradius 34.3657
lwrist -23.255
lhand -11.8245 -33.0817
lfingers 7.12502
lthumb 14.2261 -3.58894
rfemur -42.2473 4.54953 19.5317
rtibia 78.1112
rfoot -17.9014 -16.5311
rtoes -6.53416
lfemur -7.9484 -1.04652 -35.6941
ltibia 46.4274
lfoot -35.9698 10.078
ltoes -8.21731
513
root 7.55889 14.1893 23.8997 174.749 14.6614 174.72
lowerback 8.09685 0.510324 5.17496
upperback -1.18693 1.09181 -6.02321
thorax -5.61343 0.358957 -9.54436
lowerneck 0.456955 4.87953 0.158844
upperneck 9.21816 7.19382 -2.52736
head 2.97091 3.6772 -0.649873
rclavicle 2.45002e-014 -1.59028e-014
rhumerus -43.3358 33.0279 -89.0752
rradius 71.7646
rwrist 11.5813
rhand -7.36173 -54.632
rfingers 7.12502
rthumb -161.477 96.2299
lclavicle 2.45002e-014 -1.59028e-014
lhumerus -33.6686 7.22896 64.4894
lradius 34.2167
lwrist -23.4537
lhand -11.9072 -33.1977
lfingers 7.12502
lthumb 14.1464 -3.69927
rfemur -42.8771 5.24646 19.815
rtibia 76.1206
rfoot -17.7932 -17.2352
rtoes -8.67302
lfemur -7.83883 -0.588302 -35.8291
ltibia 46.6651
lfoot -36.4502 10.1469
ltoes -8.00681
514
root 7.54601 14.1569 23.8338 174.798 15.1804 174.699
lowerback 8.55763 0.381252 5.03706
upperback -1.26507 0.906853 -5.7792
thorax -5.99986 0.246967 -9.18888
lowerneck -0.286821 5.12556 0.121316
upperneck 9.7697 7.57508 -2.65185
head 3.30995 3.85118 -0.641474
rclavicle -1.58034e-014 1.43125e-014
rhumerus -43.7453 32.9044 -88.6362
rradius 71.564
rwrist 11.8234
rhand -6.956 -54.7556
rfingers 7.12502
rthumb -161.087 96.1439
lclavicle -1.58034e-014 1.43125e-014
lhumerus -33.4536 7.46977 65.0304
lradius 34.2602
lwrist -23.3041
lhand -11.645 -33.1503
lfingers 7.12502
lthumb 14.3991 -3.66977
rfemur -43.4944 5.85419 20.1407
rtibia 74.106
rfoot -17.6993 -17.7335
rtoes -9.92785
lfemur -7.78993 -0.0701992 -35.918
ltibia 46.8907
lfoot -36.906 10.0817
ltoes -8.24118
515
root 7.53506 14.1268 23.765 174.756 15.7818 174.688
lowerback 7.85258 0.364309 5.32454
upperback -0.594862 0.9091 -5.8345
thorax -4.88161 0.314431 -9.36871
lowerneck -0.874674 5.2289 0.427969
upperneck 9.3611 7.65672 -2.93043
head 3.30812 3.86675 -0.769346
rclavicle 5.61567e-015 5.56597e-014
rhumerus -42.7346 32.277 -87.843
rradius 70.992
rwrist 11.6954
rhand -7.20587 -54.8646
rfingers 7.12502
rthumb -161.327 96.0116
lclavicle 5.61567e-015 5.56597e-014
lhumerus -32.0575 7.39741 65.5424
lradius 34.2789
lwrist -22.9391
lhand -11.6682 -33.1449
lfingers 7.12502
lthumb 14.3767 -3.66279
rfemur -43.9177 6.56628 20.467
rtibia 72.0287
rfoot -17.5882 -17.9258
rtoes -10.3318
lfemur -7.62444 0.528592 -35.9696
ltibia 47.0425
lfoot -37.2823 9.80125
ltoes -7.46772
516
root 7.52528 14.1025 23.695 174.743 16.2908 174.666
lowerback 7.95107 0.32985 5.37294
upperback -0.526461 0.867686 -5.73425
thorax -4.87342 0.292964 -9.28237
lowerneck -1.15748 5.26255 0.689851
upperneck 9.51903 7.71275 -3.11541
head 3.43927 3.89009 -0.860723
rclavicle -3.29113e-014 1.59028e-015
rhumerus -42.81 31.7205 -87.4644
rradius 70.2218
rwrist 11.3393
rhand -7.72012 -55.0265
rfingers 7.12502
rthumb -161.822 95.8029
lclavicle -3.29113e-014 1.59028e-015
lhumerus -31.6114 6.8955 66.1662
lradius 34.453
lwrist -22.2495
lhand -11.5817 -33.0754
lfingers 7.12502
lthumb 14.4601 -3.59922
rfemur -44.2494 7.17803 20.7365
rtibia 69.8606
rfoot -17.7564 -17.9165
rtoes -10.1119
lfemur -7.39509 1.01459 -36.0245
ltibia 47.076
lfoot -37.6828 9.13191
ltoes -4.71216
517
root 7.51304 14.0856 23.6228 174.76 16.7158 174.6
lowerback 8.11413 0.292783 5.39631
upperback -0.612145 0.817975 -5.6308
thorax -5.06712 0.25271 -9.18411
lowerneck -1.06547 5.30831 1.01936
upperneck 9.63939 7.78565 -3.24397
head 3.4881 3.93545 -0.956739
rclavicle -1.98163e-014 -1.74931e-014
rhumerus -43.3611 31.0842 -87.1908
rradius 69.4645
rwrist 11.0816
rhand -8.00247 -54.5875
rfingers 7.12502
rthumb -162.094 96.2168
lclavicle -1.98163e-014 -1.74931e-014
lhumerus -31.5142 6.17321 66.8182
lradius 34.8342
lwrist -21.3309
lhand -11.0875 -33.0075
lfingers 7.12502
lthumb 14.9362 -3.56602
rfemur -44.5173 7.5699 20.9509
rtibia 67.5805
rfoot -17.9554 -17.6902
rtoes -8.24348
lfemur -7.11333 1.44253 -36.1609
ltibia 46.9518
lfoot -38.004 8.81912
ltoes -3.32064
518
root 7.50078 14.0764 23.5445 174.801 17.2209 174.471
lowerback 7.89627 0.231849 5.33312
upperback -0.582512 0.718066 -5.4706
thorax -4.93318 0.208571 -8.94839
lowerneck -0.688859 5.4565 1.20802
upperneck 9.4034 7.98972 -3.47996
head 3.36252 4.04137 -1.07255
rclavicle 1.03443e-013 4.13472e-014
rhumerus -43.7108 30.8742 -86.8219
rradius 69.0371
rwrist 11.4563
rhand -6.24792 -56.4363
rfingers 7.12502
rthumb -160.406 94.5311
lclavicle 1.03443e-013 4.13472e-014
lhumerus -31.6979 5.63388 67.5558
lradius 35.2406
lwrist -21.3838
lhand -12.4383 -32.8392
lfingers 7.12502
lthumb 13.6346 -3.3057
rfemur -44.7134 7.96013 21.0972
rtibia 65.2312
rfoot -17.5276 -17.5111
rtoes -6.61291
lfemur -6.84861 1.92297 -36.3931
ltibia 46.7841
lfoot -38.2393 9.076
ltoes -4.4461
